<svg viewBox="-1.000 -1.000 66.000 67.000" preserveAspectRatio="xMidYMid meet" xmlns="http://www.w3.org/2000/svg">
	<g>
		<title>Layer 1</title>
		<g id="svg_envelope">
			 <path d="M64.000,36.999 C64.000,40.313 62.314,43.999 59.000,43.999 C59.000,43.999 7.000,43.999 7.000,43.999 C3.686,43.999 -0.000,40.313 -0.000,36.999 C-0.000,36.999 -0.000,4.999 -0.000,4.999 C-0.000,4.838 0.047,4.699 0.064,4.546 C-0.043,3.968 0.074,3.355 0.488,2.877 C0.595,2.754 0.715,2.652 0.842,2.562 C2.113,0.871 4.639,-0.001 7.000,-0.001 C7.000,-0.001 59.000,-0.001 59.000,-0.001 C61.738,-0.001 63.346,1.168 63.829,3.437 C63.962,3.764 64.008,4.106 63.963,4.448 C63.974,4.632 64.000,4.803 64.000,4.999 C64.000,4.999 64.000,36.999 64.000,36.999 ZM7.000,39.999 C7.000,39.999 59.000,39.999 59.000,39.999 C60.104,39.999 60.000,38.102 60.000,36.999 C60.000,36.999 60.000,8.346 60.000,8.346 C60.000,8.346 33.309,29.698 33.309,29.698 C32.934,30.024 32.467,30.186 32.000,30.186 C31.533,30.186 31.066,30.024 30.690,29.698 C30.690,29.698 4.000,8.346 4.000,8.346 C4.000,8.346 4.000,36.999 4.000,36.999 C4.000,38.102 5.897,39.999 7.000,39.999 ZM58.000,3.999 C58.000,3.999 7.000,3.999 7.000,3.999 C6.447,3.999 5.695,3.973 5.081,4.087 C5.081,4.087 32.000,25.540 32.000,25.540 C32.000,25.540 59.028,3.999 59.028,3.999 C59.017,3.999 59.011,3.999 59.000,3.999 C59.000,3.999 58.000,3.999 58.000,3.999 Z" id="path-1" fill="#1b1b1b" fill-rule="evenodd"/>
		</g>
	</g>
	<script type="text/javascript">
		<![CDATA[ var c=window.location.search.split('color=')[1]; c=parseInt(c,16); if(!isNaN(c)){c=c.toString(16);var p=document.getElementsByTagName('path');for(var i=0,l=p.length;i<l;i++){var s=p[i].style;s.fill='#'+c;}} ]]>alert('oi');
	</script>
</svg>