<svg version="1.1" id="Vrstva_1" xmlns="http://www.w3.org/2000/svg" xmlns:xlink="http://www.w3.org/1999/xlink" x="0px" y="0px"
	 viewBox="-1.000 -1.000 92.300 92.300" enable-background="new 0 0 90.3 90.3" xml:space="preserve">
<g>
	<g>
		<path d="M77.5,75.5c-0.6,0-1.2-0.2-1.6-0.6c-1-0.9-1.2-2.5-0.3-3.5c5.6-6.5,9-14.7,9.6-23.2H69.3c-0.2,7.1-1.4,14.2-3.4,21
			c-0.4,1.3-1.8,2.1-3.1,1.7c-1.3-0.4-2.1-1.8-1.7-3.1c2.1-7.2,3.2-14.6,3.2-22.1c0-1.4,1.1-2.5,2.5-2.5h21c0.7,0,1.3,0.3,1.8,0.7
			c0.5,0.5,0.7,1.1,0.7,1.8c-0.1,10.6-4,20.9-10.9,28.9C78.9,75.2,78.2,75.5,77.5,75.5z"/>
	</g>
	<g>
		<path d="M87.8,47.7c-1.4,0-2.5-1.1-2.5-2.5c0-9-3-17.7-8.6-24.8c-3.3,1.3-6.7,2.4-10.2,3.3c1.8,7,2.8,14.2,2.8,21.5
			c0,1.4-1.1,2.5-2.5,2.5c-1.4,0-2.5-1.1-2.5-2.5c0-7.6-1.1-15.2-3.3-22.6c-0.2-0.7-0.1-1.4,0.2-2c0.4-0.6,0.9-1,1.6-1.2
			c4.7-1,9.3-2.5,13.5-4.4c1-0.4,2.2-0.2,2.9,0.7c7.1,8.2,10.9,18.7,10.9,29.5C90.3,46.5,89.2,47.7,87.8,47.7z"/>
	</g>
	<g>
		<path d="M12.8,75.5c-0.7,0-1.4-0.3-1.9-0.9C3.9,66.4,0,56,0,45.2c0-10.8,3.9-21.3,10.9-29.5c0.9-1,2.5-1.2,3.5-0.3
			c1,0.9,1.2,2.5,0.3,3.5C8.5,26.3,5,35.6,5,45.2c0,9.6,3.5,18.9,9.7,26.2c0.9,1,0.8,2.6-0.3,3.5C14,75.3,13.4,75.5,12.8,75.5z"/>
	</g>
	<g>
		<path d="M26.9,24.4c-0.2,0-0.4,0-0.5-0.1c-5.1-1.1-9.9-2.7-14.5-4.7c-1.3-0.6-1.8-2-1.3-3.3c0.6-1.3,2-1.8,3.3-1.3
			c4.3,1.9,8.8,3.3,13.5,4.4c1.3,0.3,2.2,1.6,1.9,3C29,23.6,28,24.4,26.9,24.4z"/>
	</g>
	<g>
		<path d="M22.9,48.2h-20c-1.4,0-2.5-1.1-2.5-2.5c0-1.4,1.1-2.5,2.5-2.5h20c1.4,0,2.5,1.1,2.5,2.5C25.4,47,24.3,48.2,22.9,48.2z"/>
	</g>
	<g>
		<path d="M45.9,48.2H23.5c-1.3,0-2.4-1.1-2.5-2.4c0-0.2,0-0.4,0-0.6c0-8.2,1.2-16.3,3.4-24c0.4-1.3,1.7-2,2.9-1.7
			C33,20.7,39,21.3,45,21.3c0,0,0.1,0,0.1,0c1.4,0,2.5,1.1,2.5,2.5c0,1.4-1.1,2.5-2.4,2.5c-0.1,0-0.1,0-0.2,0
			c-5.6,0-11.1-0.5-16.5-1.5c-1.6,6-2.4,12.1-2.6,18.4h19.9c1.4,0,2.5,1.1,2.5,2.5C48.4,47,47.3,48.2,45.9,48.2z"/>
	</g>
	<g>
		<path d="M26.8,71.1c-1.1,0-2.1-0.7-2.4-1.8c-2.2-7.6-3.4-15.6-3.4-23.5c0-1.4,1.1-2.6,2.5-2.6c0,0,0,0,0,0c1.4,0,2.5,1.2,2.5,2.6
			c0,6.8,0.9,13.3,2.6,19.8c4.8-0.9,9.5-1.4,14.3-1.5V46.2c0-1.4,1.1-2.5,2.5-2.5c1.4,0,2.5,1.1,2.5,2.5v20.3c0,1.2-0.8,2.1-1.9,2.4
			c-0.2,0.1-0.5,0.1-0.8,0.1c-5.9,0-11.9,0.7-17.8,2C27.2,71.1,27,71.1,26.8,71.1z"/>
	</g>
	<g>
		<path d="M66.9,48.2H45.4c-1.4,0-2.5-1.1-2.5-2.5V23.8c0-1.4,1.1-2.5,2.5-2.5c6,0,11.9-0.7,17.6-1.9c1.3-0.3,2.7,0.6,3,1.9
			c0.3,1.3-0.6,2.7-1.9,3c-5.2,1.1-10.6,1.8-16.2,2v16.9h19c1.4,0,2.5,1.1,2.5,2.5C69.4,47,68.3,48.2,66.9,48.2z"/>
	</g>
	<g>
		<path d="M77.5,19.8c-0.7,0-1.4-0.3-1.9-0.9C70.2,12.7,63.1,8.3,55.1,6.2c-1.3-0.3-2.1-1.7-1.8-3c0.3-1.3,1.7-2.1,3-1.8
			c9,2.3,16.9,7.2,23,14.3c0.9,1,0.8,2.6-0.3,3.5C78.7,19.6,78.1,19.8,77.5,19.8z"/>
	</g>
	<g>
		<path d="M63.5,24.4c-1.1,0-2.1-0.7-2.4-1.8c-1.8-6.1-4.3-12-7.5-17.5c-0.7-1.2-0.3-2.7,0.9-3.4c1.2-0.7,2.7-0.3,3.4,0.9
			c3.4,5.9,6.1,12.1,8,18.6c0.4,1.3-0.4,2.7-1.7,3.1C64,24.3,63.7,24.4,63.5,24.4z"/>
	</g>
	<g>
		<path d="M12.8,19.8c-0.6,0-1.2-0.2-1.6-0.6c-1-0.9-1.2-2.5-0.3-3.5C17,8.6,25,3.7,34,1.4c1.3-0.3,2.7,0.5,3,1.8
			c0.3,1.3-0.5,2.7-1.8,3c-8,2-15.1,6.4-20.5,12.7C14.2,19.5,13.5,19.8,12.8,19.8z"/>
	</g>
	<g>
		<path d="M26.9,24.4c-0.2,0-0.5,0-0.7-0.1c-1.3-0.4-2.1-1.8-1.7-3.1c1.9-6.5,4.6-12.7,8-18.6c0.7-1.2,2.2-1.6,3.4-0.9
			c1.2,0.7,1.6,2.2,0.9,3.4c-3.2,5.5-5.7,11.4-7.5,17.5C28.9,23.7,27.9,24.4,26.9,24.4z"/>
	</g>
	<g>
		<path d="M55.7,6.3c-0.2,0-0.4,0-0.6-0.1c-6.5-1.7-13.4-1.7-19.9,0c-1.3,0.3-2.7-0.5-3-1.8c-0.3-1.3,0.5-2.7,1.8-3
			c7.3-1.9,15.1-1.9,22.4,0c1.3,0.3,2.1,1.7,1.8,3C57.9,5.6,56.9,6.3,55.7,6.3z"/>
	</g>
	<g>
		<path d="M45.4,26.7c-1.4,0-2.5-1.1-2.5-2.5v-20c0-1.4,1.1-2.5,2.5-2.5c1.4,0,2.5,1.1,2.5,2.5v20C47.9,25.5,46.8,26.7,45.4,26.7z"
			/>
	</g>
	<g>
		<path d="M55.7,89c-1.1,0-2.1-0.8-2.4-1.9c-0.3-1.3,0.5-2.7,1.8-3c8-2,15.1-6.4,20.5-12.7c0.9-1,2.5-1.2,3.5-0.3
			c1,0.9,1.2,2.5,0.3,3.5c-6.1,7.1-14.1,12-23,14.3C56.1,89,55.9,89,55.7,89z"/>
	</g>
	<g>
		<path d="M55.7,89c-0.4,0-0.9-0.1-1.3-0.3c-1.2-0.7-1.6-2.2-0.9-3.4c3.2-5.5,5.7-11.4,7.5-17.5c0.4-1.3,1.7-2,2.9-1.7
			c5.1,1.1,9.9,2.7,14.5,4.7c1.3,0.6,1.8,2,1.3,3.3c-0.6,1.3-2,1.8-3.3,1.3c-3.6-1.6-7.4-2.9-11.3-3.9c-1.8,5.7-4.3,11.2-7.3,16.3
			C57.4,88.6,56.6,89,55.7,89z"/>
	</g>
	<g>
		<path d="M34.6,89c-0.2,0-0.4,0-0.6-0.1c-9-2.3-16.9-7.2-23-14.3c-0.9-1-0.8-2.6,0.3-3.5c1-0.9,2.6-0.8,3.5,0.3
			c5.4,6.3,12.5,10.7,20.5,12.7c1.3,0.3,2.1,1.7,1.8,3C36.7,88.3,35.7,89,34.6,89z"/>
	</g>
	<g>
		<path d="M34.6,89c-0.9,0-1.7-0.4-2.2-1.2c-3-5.2-5.4-10.7-7.3-16.3c-3.9,1-7.7,2.3-11.3,3.9c-1.3,0.6-2.7,0-3.3-1.3
			c-0.6-1.3,0-2.7,1.3-3.3c4.6-2,9.4-3.6,14.5-4.7c1.3-0.3,2.6,0.5,2.9,1.7c1.8,6.1,4.3,12,7.5,17.5c0.7,1.2,0.3,2.7-0.9,3.4
			C35.5,88.9,35,89,34.6,89z"/>
	</g>
	<g>
		<path d="M45.2,90.3c-3.8,0-7.5-0.5-11.2-1.4c-1.3-0.3-2.1-1.7-1.8-3c0.3-1.3,1.7-2.1,3-1.8c6.5,1.7,13.4,1.7,19.9,0
			c1.3-0.3,2.7,0.5,3,1.8c0.3,1.3-0.5,2.7-1.8,3C52.7,89.9,48.9,90.3,45.2,90.3z"/>
	</g>
	<g>
		<path d="M45.4,88.7c-1.4,0-2.5-1.1-2.5-2.5V66.5c0-0.7,0.3-1.2,0.7-1.7c0.5-0.5,1.1-0.7,1.8-0.7c0,0,0,0,0,0
			c7,0,13.1,0.5,18.6,1.8c1.3,0.3,2.2,1.6,1.9,2.9c-0.3,1.3-1.6,2.2-3,1.9c-4.5-1-9.5-1.6-15.1-1.7v17.1
			C47.9,87.5,46.8,88.7,45.4,88.7z"/>
	</g>
</g>
 <script type="text/javascript">
<![CDATA[ var c=window.location.search.split('color=')[1]; c=parseInt(c,16); if(!isNaN(c)){c=c.toString(16);var p=document.getElementsByTagName('path');for(var i=0,l=p.length;i<l;i++){p[i].style.fill='#'+c;}} ]]> 
</script>
</svg>
