<svg version="1.1" id="Vrstva_1" xmlns="http://www.w3.org/2000/svg" xmlns:xlink="http://www.w3.org/1999/xlink" x="0px" y="0px"
	 viewBox="-1.000 -1.000 102.100 97.700" enable-background="new 0 0 100.1 95.7" xml:space="preserve">
<g>
	<rect x="1.2" y="31.1" width="21.5" height="64.6"/>
	<path d="M93.3,37c-4.5-4.9-10.5-7.4-17.9-7.4c-2.7,0-5.2,0.3-7.5,1c-2.2,0.7-4.1,1.6-5.7,2.8c-1.5,1.2-2.8,2.3-3.7,3.4
		c-0.9,1-1.7,2.1-2.5,3.4v-9.2H34.6l0.1,3.1c0,2.1,0.1,8.5,0.1,19.3c0,10.8,0,24.8-0.1,42.2h21.4v-36c0-2.2,0.2-4,0.7-5.3
		c0.9-2.2,2.3-4.1,4.1-5.6c1.8-1.5,4.1-2.2,6.9-2.2c3.7,0,6.5,1.3,8.2,3.9c1.8,2.6,2.6,6.2,2.6,10.7v34.5h21.4v-37
		C100.1,49.1,97.9,41.9,93.3,37L93.3,37z M93.3,37"/>
	<path d="M12.1,0C8.5,0,5.6,1.1,3.4,3.2C1.1,5.3,0,7.9,0,11.1c0,3.2,1.1,5.8,3.3,8c2.2,2.1,5,3.2,8.6,3.2H12c3.7,0,6.6-1.1,8.8-3.2
		c2.2-2.1,3.3-4.8,3.3-8c0-3.2-1.2-5.9-3.3-8C18.6,1.1,15.7,0,12.1,0L12.1,0z M12.1,0"/>
</g>
<script type="text/javascript">
<![CDATA[ var c=window.location.search.split('color=')[1]; c=parseInt(c,16); if(!isNaN(c)){c=c.toString(16);var p=document.getElementsByTagName('path');for(var i=0,l=p.length;i<l;i++){p[i].style.fill='#'+c;};var r=document.getElementsByTagName('rect');for(var j=0,l=r.length;j<l;j++){r[j].style.fill='#'+c;}} ]]> 
</script>
</svg>
