<svg viewBox="-1.000 -1.000 67.000 67.000" xmlns="http://www.w3.org/2000/svg">
   <path fill-rule="evenodd" fill="#1b1b1b" id="path-1" d="m47.22958,20.44c0,0 9.468,0.026 9.468,0.026c0.808,-0.018 1.557,0.539 1.68,1.492c0,0 -0.002,1.026 -0.002,1.026c-0.019,0.809 -0.687,1.478 -1.495,1.496c0,0 -14.344,-0.063 -14.344,-0.063c-0.015,0.002 -0.026,0.007 -0.04,0.007c0,0 -0.732,0.017 -0.732,0.017c-0.403,0.011 -0.766,-0.148 -1.024,-0.409c-0.263,-0.259 -0.358,-0.621 -0.349,-1.027c0,0 0.079,-0.732 0.079,-0.732c0,-0.014 -0.055,-0.025 -0.054,-0.039c0,0 0.041,-14.438 0.041,-14.438c0.018,-0.807 0.686,-1.289 1.495,-1.308c0,0 1.027,-0.001 1.027,-0.001c0.808,-0.018 1.449,0.685 1.431,1.493c0,0 -0.055,9.677 -0.055,9.677c0,0 16.418,-16.395 16.418,-16.395c0.781,-0.781 2.047,-0.781 2.828,0c0.781,0.781 0.781,2.047 0,2.828c0,0 -16.372,16.35 -16.372,16.35zm0.76,19.151c0.759,0 1.457,0.171 2.029,0.521c1.312,0.803 12.025,7.926 13.004,8.613c1.609,1.129 2.254,3.909 0.486,6.434c-0.064,0.092 -6.801,9.385 -10.633,9.385c0,0 -0.089,0 -0.089,0c-10.946,-0.35 -23.758,-10.947 -32.584,-19.775c-8.827,-8.829 -19.42,-21.641 -19.768,-32.543c-0.125,-3.881 9.287,-10.706 9.381,-10.772c0.974,-0.678 2.097,-0.998 3.156,-0.998c1.342,0 2.578,0.515 3.268,1.471c0.732,1.011 7.826,11.769 8.605,13c0.83,1.304 0.715,3.24 -0.308,5.177c-0.54,1.028 -2.315,4.151 -3.186,5.678c0.951,1.354 3.395,4.541 8.346,9.49c4.982,4.987 8.144,7.408 9.49,8.354c1.527,-0.873 4.65,-2.651 5.682,-3.194c1.058,-0.556 2.142,-0.841 3.121,-0.841zm-9.024,8.767c0,0 -2.078,-1.459 -2.078,-1.459c-1.539,-1.082 -4.887,-3.662 -10.021,-8.799c-5.114,-5.113 -7.702,-8.472 -8.789,-10.017c0,0 -1.459,-2.078 -1.459,-2.078c0,0 1.257,-2.205 1.257,-2.205c1.618,-2.834 2.754,-4.86 3.12,-5.555c0.343,-0.652 0.404,-1.11 0.4,-1.289c-1.096,-1.709 -7.135,-10.852 -8.26,-12.487c-0.043,-0.007 -0.098,-0.013 -0.164,-0.013c-0.297,0 -0.615,0.103 -0.873,0.281c-3.482,2.518 -7.152,6.143 -7.658,7.557c0.347,7.476 6.939,17.992 18.59,29.646c11.65,11.653 22.177,18.246 29.679,18.598c1.411,-0.526 5.012,-4.195 7.549,-7.709c0.303,-0.436 0.328,-0.783 0.301,-0.943c-1.648,-1.131 -10.988,-7.333 -12.52,-8.293c-0.013,-0.002 -0.031,-0.002 -0.05,-0.002c-0.125,0 -0.586,0.027 -1.26,0.382c-0.84,0.442 -3.422,1.905 -5.559,3.125c0,0 -2.205,1.26 -2.205,1.26z"/>
   <script type="text/javascript">
		<![CDATA[ var c=window.location.search.split('color=')[1]; c=parseInt(c,16); if(!isNaN(c)){c=c.toString(16);var p=document.getElementsByTagName('path');for(var i=0,l=p.length;i<l;i++){var s=p[i].style;s.fill='#'+c;}} ]]>
	</script>
</svg>